<mxfile host="app.diagrams.net" modified="2024-06-14T15:52:24.049Z" agent="Mozilla/5.0 (Windows NT 10.0; Win64; x64) AppleWebKit/537.36 (KHTML, like Gecko) Chrome/126.0.0.0 Safari/537.36" etag="O6VKqZH4t5DTatvdexsT" version="24.5.4" type="device">
  <diagram id="C5RBs43oDa-KdzZeNtuy" name="Page-1">
    <mxGraphModel dx="2422" dy="2624" grid="1" gridSize="10" guides="1" tooltips="1" connect="1" arrows="1" fold="1" page="1" pageScale="1" pageWidth="1100" pageHeight="850" math="0" shadow="0">
      <root>
        <mxCell id="WIyWlLk6GJQsqaUBKTNV-0" />
        <mxCell id="WIyWlLk6GJQsqaUBKTNV-1" parent="WIyWlLk6GJQsqaUBKTNV-0" />
        <mxCell id="-6f6kv1cjgYrQZZL3KVE-1" style="edgeStyle=orthogonalEdgeStyle;rounded=0;orthogonalLoop=1;jettySize=auto;html=1;" parent="WIyWlLk6GJQsqaUBKTNV-1" source="-6f6kv1cjgYrQZZL3KVE-15" target="tGhq1vd1xCX6ENyTumZ_-180" edge="1">
          <mxGeometry relative="1" as="geometry">
            <mxPoint x="410" y="-1400" as="targetPoint" />
          </mxGeometry>
        </mxCell>
        <mxCell id="tGhq1vd1xCX6ENyTumZ_-179" value="clientes" style="swimlane;fontStyle=0;align=center;verticalAlign=top;childLayout=stackLayout;horizontal=1;startSize=26;horizontalStack=0;resizeParent=1;resizeLast=0;collapsible=1;marginBottom=0;rounded=0;shadow=0;strokeWidth=1;" parent="WIyWlLk6GJQsqaUBKTNV-1" vertex="1">
          <mxGeometry x="190" y="-1670" width="160" height="280" as="geometry">
            <mxRectangle x="130" y="380" width="160" height="26" as="alternateBounds" />
          </mxGeometry>
        </mxCell>
        <mxCell id="tGhq1vd1xCX6ENyTumZ_-180" value="id_client    PK" style="text;align=left;verticalAlign=top;spacingLeft=4;spacingRight=4;overflow=hidden;rotatable=0;points=[[0,0.5],[1,0.5]];portConstraint=eastwest;" parent="tGhq1vd1xCX6ENyTumZ_-179" vertex="1">
          <mxGeometry y="26" width="160" height="26" as="geometry" />
        </mxCell>
        <mxCell id="tGhq1vd1xCX6ENyTumZ_-181" value="name_client" style="text;align=left;verticalAlign=top;spacingLeft=4;spacingRight=4;overflow=hidden;rotatable=0;points=[[0,0.5],[1,0.5]];portConstraint=eastwest;rounded=0;shadow=0;html=0;" parent="tGhq1vd1xCX6ENyTumZ_-179" vertex="1">
          <mxGeometry y="52" width="160" height="28" as="geometry" />
        </mxCell>
        <mxCell id="HjSV1TEzzstD-xtGG22P-31" value="apellido_client" style="text;align=left;verticalAlign=top;spacingLeft=4;spacingRight=4;overflow=hidden;rotatable=0;points=[[0,0.5],[1,0.5]];portConstraint=eastwest;rounded=0;shadow=0;html=0;" parent="tGhq1vd1xCX6ENyTumZ_-179" vertex="1">
          <mxGeometry y="80" width="160" height="28" as="geometry" />
        </mxCell>
        <mxCell id="HjSV1TEzzstD-xtGG22P-32" value="user_client" style="text;align=left;verticalAlign=top;spacingLeft=4;spacingRight=4;overflow=hidden;rotatable=0;points=[[0,0.5],[1,0.5]];portConstraint=eastwest;rounded=0;shadow=0;html=0;" parent="tGhq1vd1xCX6ENyTumZ_-179" vertex="1">
          <mxGeometry y="108" width="160" height="28" as="geometry" />
        </mxCell>
        <mxCell id="HjSV1TEzzstD-xtGG22P-30" value="foto_client" style="text;align=left;verticalAlign=top;spacingLeft=4;spacingRight=4;overflow=hidden;rotatable=0;points=[[0,0.5],[1,0.5]];portConstraint=eastwest;rounded=0;shadow=0;html=0;" parent="tGhq1vd1xCX6ENyTumZ_-179" vertex="1">
          <mxGeometry y="136" width="160" height="28" as="geometry" />
        </mxCell>
        <mxCell id="tGhq1vd1xCX6ENyTumZ_-183" value="email_client" style="text;align=left;verticalAlign=top;spacingLeft=4;spacingRight=4;overflow=hidden;rotatable=0;points=[[0,0.5],[1,0.5]];portConstraint=eastwest;rounded=0;shadow=0;html=0;" parent="tGhq1vd1xCX6ENyTumZ_-179" vertex="1">
          <mxGeometry y="164" width="160" height="28" as="geometry" />
        </mxCell>
        <mxCell id="tGhq1vd1xCX6ENyTumZ_-184" value="password_client" style="text;align=left;verticalAlign=top;spacingLeft=4;spacingRight=4;overflow=hidden;rotatable=0;points=[[0,0.5],[1,0.5]];portConstraint=eastwest;rounded=0;shadow=0;html=0;" parent="tGhq1vd1xCX6ENyTumZ_-179" vertex="1">
          <mxGeometry y="192" width="160" height="28" as="geometry" />
        </mxCell>
        <mxCell id="tGhq1vd1xCX6ENyTumZ_-189" value="date_created_client" style="text;align=left;verticalAlign=top;spacingLeft=4;spacingRight=4;overflow=hidden;rotatable=0;points=[[0,0.5],[1,0.5]];portConstraint=eastwest;rounded=0;shadow=0;html=0;" parent="tGhq1vd1xCX6ENyTumZ_-179" vertex="1">
          <mxGeometry y="220" width="160" height="28" as="geometry" />
        </mxCell>
        <mxCell id="tGhq1vd1xCX6ENyTumZ_-190" value="date_updated_client" style="text;align=left;verticalAlign=top;spacingLeft=4;spacingRight=4;overflow=hidden;rotatable=0;points=[[0,0.5],[1,0.5]];portConstraint=eastwest;rounded=0;shadow=0;html=0;" parent="tGhq1vd1xCX6ENyTumZ_-179" vertex="1">
          <mxGeometry y="248" width="160" height="28" as="geometry" />
        </mxCell>
        <mxCell id="-6f6kv1cjgYrQZZL3KVE-2" style="edgeStyle=orthogonalEdgeStyle;rounded=0;orthogonalLoop=1;jettySize=auto;html=1;" parent="WIyWlLk6GJQsqaUBKTNV-1" source="tGhq1vd1xCX6ENyTumZ_-247" target="tGhq1vd1xCX6ENyTumZ_-231" edge="1">
          <mxGeometry relative="1" as="geometry">
            <mxPoint x="660" y="-1640" as="targetPoint" />
          </mxGeometry>
        </mxCell>
        <mxCell id="tGhq1vd1xCX6ENyTumZ_-230" value="ventas" style="swimlane;fontStyle=0;align=center;verticalAlign=top;childLayout=stackLayout;horizontal=1;startSize=26;horizontalStack=0;resizeParent=1;resizeLast=0;collapsible=1;marginBottom=0;rounded=0;shadow=0;strokeWidth=1;" parent="WIyWlLk6GJQsqaUBKTNV-1" vertex="1">
          <mxGeometry x="448" y="-1680" width="160" height="288" as="geometry">
            <mxRectangle x="130" y="380" width="160" height="26" as="alternateBounds" />
          </mxGeometry>
        </mxCell>
        <mxCell id="tGhq1vd1xCX6ENyTumZ_-231" value="id_sale            PK" style="text;align=left;verticalAlign=top;spacingLeft=4;spacingRight=4;overflow=hidden;rotatable=0;points=[[0,0.5],[1,0.5]];portConstraint=eastwest;" parent="tGhq1vd1xCX6ENyTumZ_-230" vertex="1">
          <mxGeometry y="26" width="160" height="26" as="geometry" />
        </mxCell>
        <mxCell id="tGhq1vd1xCX6ENyTumZ_-233" value="total_price_sale" style="text;align=left;verticalAlign=top;spacingLeft=4;spacingRight=4;overflow=hidden;rotatable=0;points=[[0,0.5],[1,0.5]];portConstraint=eastwest;rounded=0;shadow=0;html=0;" parent="tGhq1vd1xCX6ENyTumZ_-230" vertex="1">
          <mxGeometry y="52" width="160" height="28" as="geometry" />
        </mxCell>
        <mxCell id="tGhq1vd1xCX6ENyTumZ_-236" value="payment_status_sale" style="text;align=left;verticalAlign=top;spacingLeft=4;spacingRight=4;overflow=hidden;rotatable=0;points=[[0,0.5],[1,0.5]];portConstraint=eastwest;rounded=0;shadow=0;html=0;" parent="tGhq1vd1xCX6ENyTumZ_-230" vertex="1">
          <mxGeometry y="80" width="160" height="28" as="geometry" />
        </mxCell>
        <mxCell id="tGhq1vd1xCX6ENyTumZ_-228" value="dni_sale" style="text;align=left;verticalAlign=top;spacingLeft=4;spacingRight=4;overflow=hidden;rotatable=0;points=[[0,0.5],[1,0.5]];portConstraint=eastwest;rounded=0;shadow=0;html=0;" parent="tGhq1vd1xCX6ENyTumZ_-230" vertex="1">
          <mxGeometry y="108" width="160" height="28" as="geometry" />
        </mxCell>
        <mxCell id="tGhq1vd1xCX6ENyTumZ_-229" value="nit_sale" style="text;align=left;verticalAlign=top;spacingLeft=4;spacingRight=4;overflow=hidden;rotatable=0;points=[[0,0.5],[1,0.5]];portConstraint=eastwest;rounded=0;shadow=0;html=0;" parent="tGhq1vd1xCX6ENyTumZ_-230" vertex="1">
          <mxGeometry y="136" width="160" height="28" as="geometry" />
        </mxCell>
        <mxCell id="tGhq1vd1xCX6ENyTumZ_-234" value="date_created_sale" style="text;align=left;verticalAlign=top;spacingLeft=4;spacingRight=4;overflow=hidden;rotatable=0;points=[[0,0.5],[1,0.5]];portConstraint=eastwest;rounded=0;shadow=0;html=0;" parent="tGhq1vd1xCX6ENyTumZ_-230" vertex="1">
          <mxGeometry y="164" width="160" height="28" as="geometry" />
        </mxCell>
        <mxCell id="pzW-7_iiwVMMT-klEPPE-28" value="date_updated_sale" style="text;align=left;verticalAlign=top;spacingLeft=4;spacingRight=4;overflow=hidden;rotatable=0;points=[[0,0.5],[1,0.5]];portConstraint=eastwest;rounded=0;shadow=0;html=0;" parent="tGhq1vd1xCX6ENyTumZ_-230" vertex="1">
          <mxGeometry y="192" width="160" height="28" as="geometry" />
        </mxCell>
        <mxCell id="-6f6kv1cjgYrQZZL3KVE-15" value="id_cliente         FK" style="text;align=left;verticalAlign=top;spacingLeft=4;spacingRight=4;overflow=hidden;rotatable=0;points=[[0,0.5],[1,0.5]];portConstraint=eastwest;rounded=0;shadow=0;html=0;" parent="tGhq1vd1xCX6ENyTumZ_-230" vertex="1">
          <mxGeometry y="220" width="160" height="30" as="geometry" />
        </mxCell>
        <mxCell id="ISFkGGhXHdoQBhAszGyS-12" value="id_user         FK" style="text;align=left;verticalAlign=top;spacingLeft=4;spacingRight=4;overflow=hidden;rotatable=0;points=[[0,0.5],[1,0.5]];portConstraint=eastwest;rounded=0;shadow=0;html=0;" vertex="1" parent="tGhq1vd1xCX6ENyTumZ_-230">
          <mxGeometry y="250" width="160" height="38" as="geometry" />
        </mxCell>
        <mxCell id="zkfFHV4jXpPFQw0GAbJ--6" value="usuarios" style="swimlane;fontStyle=0;align=center;verticalAlign=top;childLayout=stackLayout;horizontal=1;startSize=26;horizontalStack=0;resizeParent=1;resizeLast=0;collapsible=1;marginBottom=0;rounded=0;shadow=0;strokeWidth=1;" parent="WIyWlLk6GJQsqaUBKTNV-1" vertex="1">
          <mxGeometry x="200" y="-1240" width="160" height="250" as="geometry">
            <mxRectangle x="130" y="380" width="160" height="26" as="alternateBounds" />
          </mxGeometry>
        </mxCell>
        <mxCell id="zkfFHV4jXpPFQw0GAbJ--7" value="id_user            PK" style="text;align=left;verticalAlign=top;spacingLeft=4;spacingRight=4;overflow=hidden;rotatable=0;points=[[0,0.5],[1,0.5]];portConstraint=eastwest;" parent="zkfFHV4jXpPFQw0GAbJ--6" vertex="1">
          <mxGeometry y="26" width="160" height="26" as="geometry" />
        </mxCell>
        <mxCell id="icrbJqTL_05nz_oc38vD-0" value="name_user" style="text;align=left;verticalAlign=top;spacingLeft=4;spacingRight=4;overflow=hidden;rotatable=0;points=[[0,0.5],[1,0.5]];portConstraint=eastwest;rounded=0;shadow=0;html=0;" parent="zkfFHV4jXpPFQw0GAbJ--6" vertex="1">
          <mxGeometry y="52" width="160" height="28" as="geometry" />
        </mxCell>
        <mxCell id="icrbJqTL_05nz_oc38vD-10" value="email_user" style="text;align=left;verticalAlign=top;spacingLeft=4;spacingRight=4;overflow=hidden;rotatable=0;points=[[0,0.5],[1,0.5]];portConstraint=eastwest;rounded=0;shadow=0;html=0;" parent="zkfFHV4jXpPFQw0GAbJ--6" vertex="1">
          <mxGeometry y="80" width="160" height="28" as="geometry" />
        </mxCell>
        <mxCell id="zkfFHV4jXpPFQw0GAbJ--8" value="password_user" style="text;align=left;verticalAlign=top;spacingLeft=4;spacingRight=4;overflow=hidden;rotatable=0;points=[[0,0.5],[1,0.5]];portConstraint=eastwest;rounded=0;shadow=0;html=0;" parent="zkfFHV4jXpPFQw0GAbJ--6" vertex="1">
          <mxGeometry y="108" width="160" height="28" as="geometry" />
        </mxCell>
        <mxCell id="icrbJqTL_05nz_oc38vD-34" value="rol_user" style="text;align=left;verticalAlign=top;spacingLeft=4;spacingRight=4;overflow=hidden;rotatable=0;points=[[0,0.5],[1,0.5]];portConstraint=eastwest;rounded=0;shadow=0;html=0;" parent="zkfFHV4jXpPFQw0GAbJ--6" vertex="1">
          <mxGeometry y="136" width="160" height="28" as="geometry" />
        </mxCell>
        <mxCell id="icrbJqTL_05nz_oc38vD-11" value="state_user" style="text;align=left;verticalAlign=top;spacingLeft=4;spacingRight=4;overflow=hidden;rotatable=0;points=[[0,0.5],[1,0.5]];portConstraint=eastwest;rounded=0;shadow=0;html=0;" parent="zkfFHV4jXpPFQw0GAbJ--6" vertex="1">
          <mxGeometry y="164" width="160" height="28" as="geometry" />
        </mxCell>
        <mxCell id="tGhq1vd1xCX6ENyTumZ_-11" value="date_created_user" style="text;align=left;verticalAlign=top;spacingLeft=4;spacingRight=4;overflow=hidden;rotatable=0;points=[[0,0.5],[1,0.5]];portConstraint=eastwest;rounded=0;shadow=0;html=0;" parent="zkfFHV4jXpPFQw0GAbJ--6" vertex="1">
          <mxGeometry y="192" width="160" height="28" as="geometry" />
        </mxCell>
        <mxCell id="tGhq1vd1xCX6ENyTumZ_-12" value="date_updated_user" style="text;align=left;verticalAlign=top;spacingLeft=4;spacingRight=4;overflow=hidden;rotatable=0;points=[[0,0.5],[1,0.5]];portConstraint=eastwest;rounded=0;shadow=0;html=0;" parent="zkfFHV4jXpPFQw0GAbJ--6" vertex="1">
          <mxGeometry y="220" width="160" height="28" as="geometry" />
        </mxCell>
        <mxCell id="tGhq1vd1xCX6ENyTumZ_-64" value="compras" style="swimlane;fontStyle=0;align=center;verticalAlign=top;childLayout=stackLayout;horizontal=1;startSize=26;horizontalStack=0;resizeParent=1;resizeLast=0;collapsible=1;marginBottom=0;rounded=0;shadow=0;strokeWidth=1;" parent="WIyWlLk6GJQsqaUBKTNV-1" vertex="1">
          <mxGeometry x="420" y="-1075" width="160" height="170" as="geometry">
            <mxRectangle x="130" y="380" width="160" height="26" as="alternateBounds" />
          </mxGeometry>
        </mxCell>
        <mxCell id="tGhq1vd1xCX6ENyTumZ_-65" value="id_buy" style="text;align=left;verticalAlign=top;spacingLeft=4;spacingRight=4;overflow=hidden;rotatable=0;points=[[0,0.5],[1,0.5]];portConstraint=eastwest;" parent="tGhq1vd1xCX6ENyTumZ_-64" vertex="1">
          <mxGeometry y="26" width="160" height="26" as="geometry" />
        </mxCell>
        <mxCell id="tGhq1vd1xCX6ENyTumZ_-66" value="status_buy" style="text;align=left;verticalAlign=top;spacingLeft=4;spacingRight=4;overflow=hidden;rotatable=0;points=[[0,0.5],[1,0.5]];portConstraint=eastwest;rounded=0;shadow=0;html=0;" parent="tGhq1vd1xCX6ENyTumZ_-64" vertex="1">
          <mxGeometry y="52" width="160" height="28" as="geometry" />
        </mxCell>
        <mxCell id="tGhq1vd1xCX6ENyTumZ_-70" value="total_price_buy" style="text;align=left;verticalAlign=top;spacingLeft=4;spacingRight=4;overflow=hidden;rotatable=0;points=[[0,0.5],[1,0.5]];portConstraint=eastwest;rounded=0;shadow=0;html=0;" parent="tGhq1vd1xCX6ENyTumZ_-64" vertex="1">
          <mxGeometry y="80" width="160" height="28" as="geometry" />
        </mxCell>
        <mxCell id="tGhq1vd1xCX6ENyTumZ_-68" value="id_usuario        PK" style="text;align=left;verticalAlign=top;spacingLeft=4;spacingRight=4;overflow=hidden;rotatable=0;points=[[0,0.5],[1,0.5]];portConstraint=eastwest;rounded=0;shadow=0;html=0;" parent="tGhq1vd1xCX6ENyTumZ_-64" vertex="1">
          <mxGeometry y="108" width="160" height="28" as="geometry" />
        </mxCell>
        <mxCell id="tGhq1vd1xCX6ENyTumZ_-69" value="id_proveedor        PK" style="text;align=left;verticalAlign=top;spacingLeft=4;spacingRight=4;overflow=hidden;rotatable=0;points=[[0,0.5],[1,0.5]];portConstraint=eastwest;rounded=0;shadow=0;html=0;" parent="tGhq1vd1xCX6ENyTumZ_-64" vertex="1">
          <mxGeometry y="136" width="160" height="28" as="geometry" />
        </mxCell>
        <mxCell id="tGhq1vd1xCX6ENyTumZ_-87" value="detalle_compra" style="swimlane;fontStyle=0;align=center;verticalAlign=top;childLayout=stackLayout;horizontal=1;startSize=26;horizontalStack=0;resizeParent=1;resizeLast=0;collapsible=1;marginBottom=0;rounded=0;shadow=0;strokeWidth=1;" parent="WIyWlLk6GJQsqaUBKTNV-1" vertex="1">
          <mxGeometry x="460" y="-1325" width="160" height="140" as="geometry">
            <mxRectangle x="130" y="380" width="160" height="26" as="alternateBounds" />
          </mxGeometry>
        </mxCell>
        <mxCell id="tGhq1vd1xCX6ENyTumZ_-89" value="cantitad_datailBuy" style="text;align=left;verticalAlign=top;spacingLeft=4;spacingRight=4;overflow=hidden;rotatable=0;points=[[0,0.5],[1,0.5]];portConstraint=eastwest;rounded=0;shadow=0;html=0;" parent="tGhq1vd1xCX6ENyTumZ_-87" vertex="1">
          <mxGeometry y="26" width="160" height="28" as="geometry" />
        </mxCell>
        <mxCell id="tGhq1vd1xCX6ENyTumZ_-90" value="priceUnitario_detailBuy" style="text;align=left;verticalAlign=top;spacingLeft=4;spacingRight=4;overflow=hidden;rotatable=0;points=[[0,0.5],[1,0.5]];portConstraint=eastwest;rounded=0;shadow=0;html=0;" parent="tGhq1vd1xCX6ENyTumZ_-87" vertex="1">
          <mxGeometry y="54" width="160" height="28" as="geometry" />
        </mxCell>
        <mxCell id="tGhq1vd1xCX6ENyTumZ_-91" value="id_autpart        PK" style="text;align=left;verticalAlign=top;spacingLeft=4;spacingRight=4;overflow=hidden;rotatable=0;points=[[0,0.5],[1,0.5]];portConstraint=eastwest;rounded=0;shadow=0;html=0;" parent="tGhq1vd1xCX6ENyTumZ_-87" vertex="1">
          <mxGeometry y="82" width="160" height="28" as="geometry" />
        </mxCell>
        <mxCell id="tGhq1vd1xCX6ENyTumZ_-92" value="id_compras         PK" style="text;align=left;verticalAlign=top;spacingLeft=4;spacingRight=4;overflow=hidden;rotatable=0;points=[[0,0.5],[1,0.5]];portConstraint=eastwest;rounded=0;shadow=0;html=0;" parent="tGhq1vd1xCX6ENyTumZ_-87" vertex="1">
          <mxGeometry y="110" width="160" height="28" as="geometry" />
        </mxCell>
        <mxCell id="-6f6kv1cjgYrQZZL3KVE-3" style="edgeStyle=orthogonalEdgeStyle;rounded=0;orthogonalLoop=1;jettySize=auto;html=1;" parent="WIyWlLk6GJQsqaUBKTNV-1" source="tGhq1vd1xCX6ENyTumZ_-248" target="tGhq1vd1xCX6ENyTumZ_-95" edge="1">
          <mxGeometry relative="1" as="geometry">
            <mxPoint x="690" y="-1510" as="targetPoint" />
            <Array as="points">
              <mxPoint x="650" y="-1556" />
              <mxPoint x="650" y="-1381" />
            </Array>
          </mxGeometry>
        </mxCell>
        <mxCell id="tGhq1vd1xCX6ENyTumZ_-94" value="repuestos" style="swimlane;fontStyle=0;align=center;verticalAlign=top;childLayout=stackLayout;horizontal=1;startSize=26;horizontalStack=0;resizeParent=1;resizeLast=0;collapsible=1;marginBottom=0;rounded=0;shadow=0;strokeWidth=1;" parent="WIyWlLk6GJQsqaUBKTNV-1" vertex="1">
          <mxGeometry x="670" y="-1420" width="160" height="290" as="geometry">
            <mxRectangle x="620" y="-440" width="160" height="26" as="alternateBounds" />
          </mxGeometry>
        </mxCell>
        <mxCell id="tGhq1vd1xCX6ENyTumZ_-95" value="id_autopart            PK" style="text;align=left;verticalAlign=top;spacingLeft=4;spacingRight=4;overflow=hidden;rotatable=0;points=[[0,0.5],[1,0.5]];portConstraint=eastwest;" parent="tGhq1vd1xCX6ENyTumZ_-94" vertex="1">
          <mxGeometry y="26" width="160" height="26" as="geometry" />
        </mxCell>
        <mxCell id="tGhq1vd1xCX6ENyTumZ_-96" value="oem_autopart" style="text;align=left;verticalAlign=top;spacingLeft=4;spacingRight=4;overflow=hidden;rotatable=0;points=[[0,0.5],[1,0.5]];portConstraint=eastwest;rounded=0;shadow=0;html=0;" parent="tGhq1vd1xCX6ENyTumZ_-94" vertex="1">
          <mxGeometry y="52" width="160" height="28" as="geometry" />
        </mxCell>
        <mxCell id="tGhq1vd1xCX6ENyTumZ_-97" value="price_buy_autopart" style="text;align=left;verticalAlign=top;spacingLeft=4;spacingRight=4;overflow=hidden;rotatable=0;points=[[0,0.5],[1,0.5]];portConstraint=eastwest;rounded=0;shadow=0;html=0;" parent="tGhq1vd1xCX6ENyTumZ_-94" vertex="1">
          <mxGeometry y="80" width="160" height="28" as="geometry" />
        </mxCell>
        <mxCell id="tGhq1vd1xCX6ENyTumZ_-102" value="price_mayor_autopart" style="text;align=left;verticalAlign=top;spacingLeft=4;spacingRight=4;overflow=hidden;rotatable=0;points=[[0,0.5],[1,0.5]];portConstraint=eastwest;rounded=0;shadow=0;html=0;" parent="tGhq1vd1xCX6ENyTumZ_-94" vertex="1">
          <mxGeometry y="108" width="160" height="28" as="geometry" />
        </mxCell>
        <mxCell id="_CXoZBGpfcz07bPPq3PS-116" value="code_autopart" style="text;align=left;verticalAlign=top;spacingLeft=4;spacingRight=4;overflow=hidden;rotatable=0;points=[[0,0.5],[1,0.5]];portConstraint=eastwest;rounded=0;shadow=0;html=0;" parent="tGhq1vd1xCX6ENyTumZ_-94" vertex="1">
          <mxGeometry y="136" width="160" height="28" as="geometry" />
        </mxCell>
        <mxCell id="tGhq1vd1xCX6ENyTumZ_-103" value="stock_autopart" style="text;align=left;verticalAlign=top;spacingLeft=4;spacingRight=4;overflow=hidden;rotatable=0;points=[[0,0.5],[1,0.5]];portConstraint=eastwest;rounded=0;shadow=0;html=0;" parent="tGhq1vd1xCX6ENyTumZ_-94" vertex="1">
          <mxGeometry y="164" width="160" height="28" as="geometry" />
        </mxCell>
        <mxCell id="hEAHpVz6nBF3H3ayaTzq-0" value="origen_autopart" style="text;align=left;verticalAlign=top;spacingLeft=4;spacingRight=4;overflow=hidden;rotatable=0;points=[[0,0.5],[1,0.5]];portConstraint=eastwest;rounded=0;shadow=0;html=0;" parent="tGhq1vd1xCX6ENyTumZ_-94" vertex="1">
          <mxGeometry y="192" width="160" height="28" as="geometry" />
        </mxCell>
        <mxCell id="tGhq1vd1xCX6ENyTumZ_-98" value="date_created_autopart" style="text;align=left;verticalAlign=top;spacingLeft=4;spacingRight=4;overflow=hidden;rotatable=0;points=[[0,0.5],[1,0.5]];portConstraint=eastwest;rounded=0;shadow=0;html=0;" parent="tGhq1vd1xCX6ENyTumZ_-94" vertex="1">
          <mxGeometry y="220" width="160" height="28" as="geometry" />
        </mxCell>
        <mxCell id="tGhq1vd1xCX6ENyTumZ_-99" value="id_category            FK" style="text;align=left;verticalAlign=top;spacingLeft=4;spacingRight=4;overflow=hidden;rotatable=0;points=[[0,0.5],[1,0.5]];portConstraint=eastwest;rounded=0;shadow=0;html=0;" parent="tGhq1vd1xCX6ENyTumZ_-94" vertex="1">
          <mxGeometry y="248" width="160" height="42" as="geometry" />
        </mxCell>
        <mxCell id="-6f6kv1cjgYrQZZL3KVE-26" style="edgeStyle=orthogonalEdgeStyle;rounded=0;orthogonalLoop=1;jettySize=auto;html=1;" parent="WIyWlLk6GJQsqaUBKTNV-1" source="tGhq1vd1xCX6ENyTumZ_-99" target="tGhq1vd1xCX6ENyTumZ_-108" edge="1">
          <mxGeometry relative="1" as="geometry">
            <Array as="points">
              <mxPoint x="850" y="-1160" />
              <mxPoint x="850" y="-1470" />
              <mxPoint x="920" y="-1470" />
              <mxPoint x="920" y="-1580" />
            </Array>
            <mxPoint x="770" y="-1460" as="targetPoint" />
          </mxGeometry>
        </mxCell>
        <mxCell id="tGhq1vd1xCX6ENyTumZ_-107" value="categories" style="swimlane;fontStyle=0;align=center;verticalAlign=top;childLayout=stackLayout;horizontal=1;startSize=26;horizontalStack=0;resizeParent=1;resizeLast=0;collapsible=1;marginBottom=0;rounded=0;shadow=0;strokeWidth=1;" parent="WIyWlLk6GJQsqaUBKTNV-1" vertex="1">
          <mxGeometry x="960" y="-1624" width="160" height="146" as="geometry">
            <mxRectangle x="130" y="380" width="160" height="26" as="alternateBounds" />
          </mxGeometry>
        </mxCell>
        <mxCell id="tGhq1vd1xCX6ENyTumZ_-108" value="id_category" style="text;align=left;verticalAlign=top;spacingLeft=4;spacingRight=4;overflow=hidden;rotatable=0;points=[[0,0.5],[1,0.5]];portConstraint=eastwest;" parent="tGhq1vd1xCX6ENyTumZ_-107" vertex="1">
          <mxGeometry y="26" width="160" height="26" as="geometry" />
        </mxCell>
        <mxCell id="tGhq1vd1xCX6ENyTumZ_-110" value="name_category" style="text;align=left;verticalAlign=top;spacingLeft=4;spacingRight=4;overflow=hidden;rotatable=0;points=[[0,0.5],[1,0.5]];portConstraint=eastwest;rounded=0;shadow=0;html=0;" parent="tGhq1vd1xCX6ENyTumZ_-107" vertex="1">
          <mxGeometry y="52" width="160" height="28" as="geometry" />
        </mxCell>
        <mxCell id="tGhq1vd1xCX6ENyTumZ_-113" value="date_created_category" style="text;align=left;verticalAlign=top;spacingLeft=4;spacingRight=4;overflow=hidden;rotatable=0;points=[[0,0.5],[1,0.5]];portConstraint=eastwest;rounded=0;shadow=0;html=0;" parent="tGhq1vd1xCX6ENyTumZ_-107" vertex="1">
          <mxGeometry y="80" width="160" height="28" as="geometry" />
        </mxCell>
        <mxCell id="tGhq1vd1xCX6ENyTumZ_-114" value="date_updated_category" style="text;align=left;verticalAlign=top;spacingLeft=4;spacingRight=4;overflow=hidden;rotatable=0;points=[[0,0.5],[1,0.5]];portConstraint=eastwest;rounded=0;shadow=0;html=0;" parent="tGhq1vd1xCX6ENyTumZ_-107" vertex="1">
          <mxGeometry y="108" width="160" height="38" as="geometry" />
        </mxCell>
        <mxCell id="tGhq1vd1xCX6ENyTumZ_-118" value="modelos" style="swimlane;fontStyle=0;align=center;verticalAlign=top;childLayout=stackLayout;horizontal=1;startSize=26;horizontalStack=0;resizeParent=1;resizeLast=0;collapsible=1;marginBottom=0;rounded=0;shadow=0;strokeWidth=1;" parent="WIyWlLk6GJQsqaUBKTNV-1" vertex="1">
          <mxGeometry x="1110" y="-1350" width="160" height="200" as="geometry">
            <mxRectangle x="130" y="380" width="160" height="26" as="alternateBounds" />
          </mxGeometry>
        </mxCell>
        <mxCell id="tGhq1vd1xCX6ENyTumZ_-119" value="id_model        PK" style="text;align=left;verticalAlign=top;spacingLeft=4;spacingRight=4;overflow=hidden;rotatable=0;points=[[0,0.5],[1,0.5]];portConstraint=eastwest;" parent="tGhq1vd1xCX6ENyTumZ_-118" vertex="1">
          <mxGeometry y="26" width="160" height="26" as="geometry" />
        </mxCell>
        <mxCell id="tGhq1vd1xCX6ENyTumZ_-120" value="name_model" style="text;align=left;verticalAlign=top;spacingLeft=4;spacingRight=4;overflow=hidden;rotatable=0;points=[[0,0.5],[1,0.5]];portConstraint=eastwest;rounded=0;shadow=0;html=0;" parent="tGhq1vd1xCX6ENyTumZ_-118" vertex="1">
          <mxGeometry y="52" width="160" height="28" as="geometry" />
        </mxCell>
        <mxCell id="tGhq1vd1xCX6ENyTumZ_-123" value="start_year_model" style="text;align=left;verticalAlign=top;spacingLeft=4;spacingRight=4;overflow=hidden;rotatable=0;points=[[0,0.5],[1,0.5]];portConstraint=eastwest;rounded=0;shadow=0;html=0;" parent="tGhq1vd1xCX6ENyTumZ_-118" vertex="1">
          <mxGeometry y="80" width="160" height="28" as="geometry" />
        </mxCell>
        <mxCell id="tGhq1vd1xCX6ENyTumZ_-125" value="end_year_model" style="text;align=left;verticalAlign=top;spacingLeft=4;spacingRight=4;overflow=hidden;rotatable=0;points=[[0,0.5],[1,0.5]];portConstraint=eastwest;rounded=0;shadow=0;html=0;" parent="tGhq1vd1xCX6ENyTumZ_-118" vertex="1">
          <mxGeometry y="108" width="160" height="28" as="geometry" />
        </mxCell>
        <mxCell id="tGhq1vd1xCX6ENyTumZ_-121" value="date_created_model" style="text;align=left;verticalAlign=top;spacingLeft=4;spacingRight=4;overflow=hidden;rotatable=0;points=[[0,0.5],[1,0.5]];portConstraint=eastwest;rounded=0;shadow=0;html=0;" parent="tGhq1vd1xCX6ENyTumZ_-118" vertex="1">
          <mxGeometry y="136" width="160" height="28" as="geometry" />
        </mxCell>
        <mxCell id="tGhq1vd1xCX6ENyTumZ_-122" value="id_marca            FK" style="text;align=left;verticalAlign=top;spacingLeft=4;spacingRight=4;overflow=hidden;rotatable=0;points=[[0,0.5],[1,0.5]];portConstraint=eastwest;rounded=0;shadow=0;html=0;" parent="tGhq1vd1xCX6ENyTumZ_-118" vertex="1">
          <mxGeometry y="164" width="160" height="26" as="geometry" />
        </mxCell>
        <mxCell id="tGhq1vd1xCX6ENyTumZ_-129" value="marcas" style="swimlane;fontStyle=0;align=center;verticalAlign=top;childLayout=stackLayout;horizontal=1;startSize=26;horizontalStack=0;resizeParent=1;resizeLast=0;collapsible=1;marginBottom=0;rounded=0;shadow=0;strokeWidth=1;" parent="WIyWlLk6GJQsqaUBKTNV-1" vertex="1">
          <mxGeometry x="1130" y="-1536" width="160" height="146" as="geometry">
            <mxRectangle x="130" y="380" width="160" height="26" as="alternateBounds" />
          </mxGeometry>
        </mxCell>
        <mxCell id="tGhq1vd1xCX6ENyTumZ_-130" value="id_brand            PK" style="text;align=left;verticalAlign=top;spacingLeft=4;spacingRight=4;overflow=hidden;rotatable=0;points=[[0,0.5],[1,0.5]];portConstraint=eastwest;" parent="tGhq1vd1xCX6ENyTumZ_-129" vertex="1">
          <mxGeometry y="26" width="160" height="26" as="geometry" />
        </mxCell>
        <mxCell id="tGhq1vd1xCX6ENyTumZ_-131" value="name_brand" style="text;align=left;verticalAlign=top;spacingLeft=4;spacingRight=4;overflow=hidden;rotatable=0;points=[[0,0.5],[1,0.5]];portConstraint=eastwest;rounded=0;shadow=0;html=0;" parent="tGhq1vd1xCX6ENyTumZ_-129" vertex="1">
          <mxGeometry y="52" width="160" height="28" as="geometry" />
        </mxCell>
        <mxCell id="tGhq1vd1xCX6ENyTumZ_-132" value="date_created_brand" style="text;align=left;verticalAlign=top;spacingLeft=4;spacingRight=4;overflow=hidden;rotatable=0;points=[[0,0.5],[1,0.5]];portConstraint=eastwest;rounded=0;shadow=0;html=0;" parent="tGhq1vd1xCX6ENyTumZ_-129" vertex="1">
          <mxGeometry y="80" width="160" height="28" as="geometry" />
        </mxCell>
        <mxCell id="tGhq1vd1xCX6ENyTumZ_-133" value="date_updated_brand" style="text;align=left;verticalAlign=top;spacingLeft=4;spacingRight=4;overflow=hidden;rotatable=0;points=[[0,0.5],[1,0.5]];portConstraint=eastwest;rounded=0;shadow=0;html=0;" parent="tGhq1vd1xCX6ENyTumZ_-129" vertex="1">
          <mxGeometry y="108" width="160" height="38" as="geometry" />
        </mxCell>
        <mxCell id="tGhq1vd1xCX6ENyTumZ_-149" style="edgeStyle=none;rounded=0;orthogonalLoop=1;jettySize=auto;html=1;exitX=0.5;exitY=0;exitDx=0;exitDy=0;entryX=0.75;entryY=0;entryDx=0;entryDy=0;strokeColor=default;align=center;verticalAlign=middle;fontFamily=Helvetica;fontSize=11;fontColor=default;labelBackgroundColor=default;endArrow=none;" parent="WIyWlLk6GJQsqaUBKTNV-1" source="tGhq1vd1xCX6ENyTumZ_-107" target="tGhq1vd1xCX6ENyTumZ_-107" edge="1">
          <mxGeometry relative="1" as="geometry" />
        </mxCell>
        <mxCell id="tGhq1vd1xCX6ENyTumZ_-150" value="motores" style="swimlane;fontStyle=0;align=center;verticalAlign=top;childLayout=stackLayout;horizontal=1;startSize=26;horizontalStack=0;resizeParent=1;resizeLast=0;collapsible=1;marginBottom=0;rounded=0;shadow=0;strokeWidth=1;" parent="WIyWlLk6GJQsqaUBKTNV-1" vertex="1">
          <mxGeometry x="880" y="-1075" width="160" height="174" as="geometry">
            <mxRectangle x="130" y="380" width="160" height="26" as="alternateBounds" />
          </mxGeometry>
        </mxCell>
        <mxCell id="tGhq1vd1xCX6ENyTumZ_-151" value="id_engine            PK" style="text;align=left;verticalAlign=top;spacingLeft=4;spacingRight=4;overflow=hidden;rotatable=0;points=[[0,0.5],[1,0.5]];portConstraint=eastwest;" parent="tGhq1vd1xCX6ENyTumZ_-150" vertex="1">
          <mxGeometry y="26" width="160" height="26" as="geometry" />
        </mxCell>
        <mxCell id="tGhq1vd1xCX6ENyTumZ_-152" value="type_engine" style="text;align=left;verticalAlign=top;spacingLeft=4;spacingRight=4;overflow=hidden;rotatable=0;points=[[0,0.5],[1,0.5]];portConstraint=eastwest;rounded=0;shadow=0;html=0;" parent="tGhq1vd1xCX6ENyTumZ_-150" vertex="1">
          <mxGeometry y="52" width="160" height="28" as="geometry" />
        </mxCell>
        <mxCell id="tGhq1vd1xCX6ENyTumZ_-161" value="description_engine" style="text;align=left;verticalAlign=top;spacingLeft=4;spacingRight=4;overflow=hidden;rotatable=0;points=[[0,0.5],[1,0.5]];portConstraint=eastwest;rounded=0;shadow=0;html=0;" parent="tGhq1vd1xCX6ENyTumZ_-150" vertex="1">
          <mxGeometry y="80" width="160" height="28" as="geometry" />
        </mxCell>
        <mxCell id="tGhq1vd1xCX6ENyTumZ_-153" value="date_created_engine" style="text;align=left;verticalAlign=top;spacingLeft=4;spacingRight=4;overflow=hidden;rotatable=0;points=[[0,0.5],[1,0.5]];portConstraint=eastwest;rounded=0;shadow=0;html=0;" parent="tGhq1vd1xCX6ENyTumZ_-150" vertex="1">
          <mxGeometry y="108" width="160" height="28" as="geometry" />
        </mxCell>
        <mxCell id="tGhq1vd1xCX6ENyTumZ_-154" value="date_updated_engine" style="text;align=left;verticalAlign=top;spacingLeft=4;spacingRight=4;overflow=hidden;rotatable=0;points=[[0,0.5],[1,0.5]];portConstraint=eastwest;rounded=0;shadow=0;html=0;" parent="tGhq1vd1xCX6ENyTumZ_-150" vertex="1">
          <mxGeometry y="136" width="160" height="38" as="geometry" />
        </mxCell>
        <mxCell id="tGhq1vd1xCX6ENyTumZ_-243" value="detalle_venta" style="swimlane;fontStyle=0;align=center;verticalAlign=top;childLayout=stackLayout;horizontal=1;startSize=26;horizontalStack=0;resizeParent=1;resizeLast=0;collapsible=1;marginBottom=0;rounded=0;shadow=0;strokeWidth=1;" parent="WIyWlLk6GJQsqaUBKTNV-1" vertex="1">
          <mxGeometry x="750" y="-1680" width="160" height="166" as="geometry">
            <mxRectangle x="130" y="380" width="160" height="26" as="alternateBounds" />
          </mxGeometry>
        </mxCell>
        <mxCell id="tGhq1vd1xCX6ENyTumZ_-245" value="cantitad_salePart" style="text;align=left;verticalAlign=top;spacingLeft=4;spacingRight=4;overflow=hidden;rotatable=0;points=[[0,0.5],[1,0.5]];portConstraint=eastwest;rounded=0;shadow=0;html=0;" parent="tGhq1vd1xCX6ENyTumZ_-243" vertex="1">
          <mxGeometry y="26" width="160" height="28" as="geometry" />
        </mxCell>
        <mxCell id="tGhq1vd1xCX6ENyTumZ_-246" value="price_salePart" style="text;align=left;verticalAlign=top;spacingLeft=4;spacingRight=4;overflow=hidden;rotatable=0;points=[[0,0.5],[1,0.5]];portConstraint=eastwest;rounded=0;shadow=0;html=0;" parent="tGhq1vd1xCX6ENyTumZ_-243" vertex="1">
          <mxGeometry y="54" width="160" height="28" as="geometry" />
        </mxCell>
        <mxCell id="tGhq1vd1xCX6ENyTumZ_-247" value="id_sales        PK" style="text;align=left;verticalAlign=top;spacingLeft=4;spacingRight=4;overflow=hidden;rotatable=0;points=[[0,0.5],[1,0.5]];portConstraint=eastwest;rounded=0;shadow=0;html=0;" parent="tGhq1vd1xCX6ENyTumZ_-243" vertex="1">
          <mxGeometry y="82" width="160" height="28" as="geometry" />
        </mxCell>
        <mxCell id="tGhq1vd1xCX6ENyTumZ_-248" value="id_autopart            PK" style="text;align=left;verticalAlign=top;spacingLeft=4;spacingRight=4;overflow=hidden;rotatable=0;points=[[0,0.5],[1,0.5]];portConstraint=eastwest;rounded=0;shadow=0;html=0;" parent="tGhq1vd1xCX6ENyTumZ_-243" vertex="1">
          <mxGeometry y="110" width="160" height="28" as="geometry" />
        </mxCell>
        <mxCell id="ISFkGGhXHdoQBhAszGyS-15" value="" style="edgeStyle=orthogonalEdgeStyle;rounded=0;orthogonalLoop=1;jettySize=auto;html=1;" edge="1" parent="WIyWlLk6GJQsqaUBKTNV-1" source="tGhq1vd1xCX6ENyTumZ_-253" target="tGhq1vd1xCX6ENyTumZ_-97">
          <mxGeometry relative="1" as="geometry" />
        </mxCell>
        <mxCell id="tGhq1vd1xCX6ENyTumZ_-253" value="modelos_repuestos" style="swimlane;fontStyle=0;align=center;verticalAlign=top;childLayout=stackLayout;horizontal=1;startSize=26;horizontalStack=0;resizeParent=1;resizeLast=0;collapsible=1;marginBottom=0;rounded=0;shadow=0;strokeWidth=1;" parent="WIyWlLk6GJQsqaUBKTNV-1" vertex="1">
          <mxGeometry x="880" y="-1410" width="180" height="85" as="geometry">
            <mxRectangle x="130" y="380" width="160" height="26" as="alternateBounds" />
          </mxGeometry>
        </mxCell>
        <mxCell id="tGhq1vd1xCX6ENyTumZ_-257" value="id_repuesto        PK" style="text;align=left;verticalAlign=top;spacingLeft=4;spacingRight=4;overflow=hidden;rotatable=0;points=[[0,0.5],[1,0.5]];portConstraint=eastwest;rounded=0;shadow=0;html=0;" parent="tGhq1vd1xCX6ENyTumZ_-253" vertex="1">
          <mxGeometry y="26" width="180" height="28" as="geometry" />
        </mxCell>
        <mxCell id="tGhq1vd1xCX6ENyTumZ_-258" value="id_model            PK" style="text;align=left;verticalAlign=top;spacingLeft=4;spacingRight=4;overflow=hidden;rotatable=1;points=[[0,0.5],[1,0.5]];portConstraint=eastwest;rounded=0;shadow=0;html=0;movable=1;resizable=1;deletable=1;editable=1;locked=0;connectable=1;" parent="tGhq1vd1xCX6ENyTumZ_-253" vertex="1">
          <mxGeometry y="54" width="180" height="28" as="geometry" />
        </mxCell>
        <mxCell id="HjSV1TEzzstD-xtGG22P-8" value="Proveedor" style="swimlane;fontStyle=0;align=center;verticalAlign=top;childLayout=stackLayout;horizontal=1;startSize=26;horizontalStack=0;resizeParent=1;resizeLast=0;collapsible=1;marginBottom=0;rounded=0;shadow=0;strokeWidth=1;" parent="WIyWlLk6GJQsqaUBKTNV-1" vertex="1">
          <mxGeometry x="660" y="-1085.01" width="160" height="210" as="geometry">
            <mxRectangle x="130" y="380" width="160" height="26" as="alternateBounds" />
          </mxGeometry>
        </mxCell>
        <mxCell id="HjSV1TEzzstD-xtGG22P-9" value="id_proveedor            PK" style="text;align=left;verticalAlign=top;spacingLeft=4;spacingRight=4;overflow=hidden;rotatable=0;points=[[0,0.5],[1,0.5]];portConstraint=eastwest;" parent="HjSV1TEzzstD-xtGG22P-8" vertex="1">
          <mxGeometry y="26" width="160" height="26" as="geometry" />
        </mxCell>
        <mxCell id="HjSV1TEzzstD-xtGG22P-10" value="nombre" style="text;align=left;verticalAlign=top;spacingLeft=4;spacingRight=4;overflow=hidden;rotatable=0;points=[[0,0.5],[1,0.5]];portConstraint=eastwest;rounded=0;shadow=0;html=0;" parent="HjSV1TEzzstD-xtGG22P-8" vertex="1">
          <mxGeometry y="52" width="160" height="28" as="geometry" />
        </mxCell>
        <mxCell id="HjSV1TEzzstD-xtGG22P-11" value="contacto" style="text;align=left;verticalAlign=top;spacingLeft=4;spacingRight=4;overflow=hidden;rotatable=0;points=[[0,0.5],[1,0.5]];portConstraint=eastwest;rounded=0;shadow=0;html=0;" parent="HjSV1TEzzstD-xtGG22P-8" vertex="1">
          <mxGeometry y="80" width="160" height="28" as="geometry" />
        </mxCell>
        <mxCell id="HjSV1TEzzstD-xtGG22P-16" value="telefono" style="text;align=left;verticalAlign=top;spacingLeft=4;spacingRight=4;overflow=hidden;rotatable=0;points=[[0,0.5],[1,0.5]];portConstraint=eastwest;rounded=0;shadow=0;html=0;" parent="HjSV1TEzzstD-xtGG22P-8" vertex="1">
          <mxGeometry y="108" width="160" height="28" as="geometry" />
        </mxCell>
        <mxCell id="HjSV1TEzzstD-xtGG22P-12" value="date_created_buy" style="text;align=left;verticalAlign=top;spacingLeft=4;spacingRight=4;overflow=hidden;rotatable=0;points=[[0,0.5],[1,0.5]];portConstraint=eastwest;rounded=0;shadow=0;html=0;" parent="HjSV1TEzzstD-xtGG22P-8" vertex="1">
          <mxGeometry y="136" width="160" height="28" as="geometry" />
        </mxCell>
        <mxCell id="HjSV1TEzzstD-xtGG22P-13" value="date_updated_buy" style="text;align=left;verticalAlign=top;spacingLeft=4;spacingRight=4;overflow=hidden;rotatable=0;points=[[0,0.5],[1,0.5]];portConstraint=eastwest;rounded=0;shadow=0;html=0;" parent="HjSV1TEzzstD-xtGG22P-8" vertex="1">
          <mxGeometry y="164" width="160" height="28" as="geometry" />
        </mxCell>
        <mxCell id="ISFkGGhXHdoQBhAszGyS-16" style="edgeStyle=orthogonalEdgeStyle;rounded=0;orthogonalLoop=1;jettySize=auto;html=1;" edge="1" parent="WIyWlLk6GJQsqaUBKTNV-1" source="sHOM1PMXue6XPy4m4KVC-8" target="tGhq1vd1xCX6ENyTumZ_-95">
          <mxGeometry relative="1" as="geometry">
            <Array as="points">
              <mxPoint x="990" y="-1300" />
              <mxPoint x="840" y="-1300" />
              <mxPoint x="840" y="-1381" />
            </Array>
          </mxGeometry>
        </mxCell>
        <mxCell id="sHOM1PMXue6XPy4m4KVC-8" value="motores_repuestos" style="swimlane;fontStyle=0;align=center;verticalAlign=top;childLayout=stackLayout;horizontal=1;startSize=26;horizontalStack=0;resizeParent=1;resizeLast=0;collapsible=1;marginBottom=0;rounded=0;shadow=0;strokeWidth=1;" parent="WIyWlLk6GJQsqaUBKTNV-1" vertex="1">
          <mxGeometry x="900" y="-1240" width="180" height="82" as="geometry">
            <mxRectangle x="130" y="380" width="160" height="26" as="alternateBounds" />
          </mxGeometry>
        </mxCell>
        <mxCell id="sHOM1PMXue6XPy4m4KVC-9" value="id_autopart            PK" style="text;align=left;verticalAlign=top;spacingLeft=4;spacingRight=4;overflow=hidden;rotatable=0;points=[[0,0.5],[1,0.5]];portConstraint=eastwest;rounded=0;shadow=0;html=0;" parent="sHOM1PMXue6XPy4m4KVC-8" vertex="1">
          <mxGeometry y="26" width="180" height="28" as="geometry" />
        </mxCell>
        <mxCell id="sHOM1PMXue6XPy4m4KVC-10" value="id_motor            PK" style="text;align=left;verticalAlign=top;spacingLeft=4;spacingRight=4;overflow=hidden;rotatable=1;points=[[0,0.5],[1,0.5]];portConstraint=eastwest;rounded=0;shadow=0;html=0;movable=1;resizable=1;deletable=1;editable=1;locked=0;connectable=1;" parent="sHOM1PMXue6XPy4m4KVC-8" vertex="1">
          <mxGeometry y="54" width="180" height="28" as="geometry" />
        </mxCell>
        <mxCell id="-6f6kv1cjgYrQZZL3KVE-19" value="motores_repuestos" style="swimlane;fontStyle=0;align=center;verticalAlign=top;childLayout=stackLayout;horizontal=1;startSize=26;horizontalStack=0;resizeParent=1;resizeLast=0;collapsible=1;marginBottom=0;rounded=0;shadow=0;strokeWidth=1;" parent="WIyWlLk6GJQsqaUBKTNV-1" vertex="1">
          <mxGeometry x="1090" y="-1100" width="180" height="90" as="geometry">
            <mxRectangle x="130" y="380" width="160" height="26" as="alternateBounds" />
          </mxGeometry>
        </mxCell>
        <mxCell id="-6f6kv1cjgYrQZZL3KVE-20" value="id_model            PK" style="text;align=left;verticalAlign=top;spacingLeft=4;spacingRight=4;overflow=hidden;rotatable=0;points=[[0,0.5],[1,0.5]];portConstraint=eastwest;rounded=0;shadow=0;html=0;" parent="-6f6kv1cjgYrQZZL3KVE-19" vertex="1">
          <mxGeometry y="26" width="180" height="28" as="geometry" />
        </mxCell>
        <mxCell id="-6f6kv1cjgYrQZZL3KVE-21" value="id_motor            PK" style="text;align=left;verticalAlign=top;spacingLeft=4;spacingRight=4;overflow=hidden;rotatable=1;points=[[0,0.5],[1,0.5]];portConstraint=eastwest;rounded=0;shadow=0;html=0;movable=1;resizable=1;deletable=1;editable=1;locked=0;connectable=1;" parent="-6f6kv1cjgYrQZZL3KVE-19" vertex="1">
          <mxGeometry y="54" width="180" height="28" as="geometry" />
        </mxCell>
        <mxCell id="ISFkGGhXHdoQBhAszGyS-0" style="edgeStyle=orthogonalEdgeStyle;rounded=0;orthogonalLoop=1;jettySize=auto;html=1;entryX=0;entryY=0.5;entryDx=0;entryDy=0;" edge="1" parent="WIyWlLk6GJQsqaUBKTNV-1" source="tGhq1vd1xCX6ENyTumZ_-91" target="tGhq1vd1xCX6ENyTumZ_-95">
          <mxGeometry relative="1" as="geometry">
            <Array as="points">
              <mxPoint x="645" y="-1229" />
              <mxPoint x="645" y="-1381" />
            </Array>
          </mxGeometry>
        </mxCell>
        <mxCell id="ISFkGGhXHdoQBhAszGyS-2" style="edgeStyle=orthogonalEdgeStyle;rounded=0;orthogonalLoop=1;jettySize=auto;html=1;" edge="1" parent="WIyWlLk6GJQsqaUBKTNV-1" source="tGhq1vd1xCX6ENyTumZ_-258" target="tGhq1vd1xCX6ENyTumZ_-119">
          <mxGeometry relative="1" as="geometry" />
        </mxCell>
        <mxCell id="ISFkGGhXHdoQBhAszGyS-4" style="edgeStyle=orthogonalEdgeStyle;rounded=0;orthogonalLoop=1;jettySize=auto;html=1;entryX=1;entryY=0.5;entryDx=0;entryDy=0;" edge="1" parent="WIyWlLk6GJQsqaUBKTNV-1" source="tGhq1vd1xCX6ENyTumZ_-122" target="tGhq1vd1xCX6ENyTumZ_-130">
          <mxGeometry relative="1" as="geometry" />
        </mxCell>
        <mxCell id="ISFkGGhXHdoQBhAszGyS-5" style="edgeStyle=orthogonalEdgeStyle;rounded=0;orthogonalLoop=1;jettySize=auto;html=1;" edge="1" parent="WIyWlLk6GJQsqaUBKTNV-1" source="-6f6kv1cjgYrQZZL3KVE-21" target="tGhq1vd1xCX6ENyTumZ_-151">
          <mxGeometry relative="1" as="geometry" />
        </mxCell>
        <mxCell id="ISFkGGhXHdoQBhAszGyS-6" style="edgeStyle=orthogonalEdgeStyle;rounded=0;orthogonalLoop=1;jettySize=auto;html=1;" edge="1" parent="WIyWlLk6GJQsqaUBKTNV-1" source="-6f6kv1cjgYrQZZL3KVE-20" target="tGhq1vd1xCX6ENyTumZ_-119">
          <mxGeometry relative="1" as="geometry">
            <Array as="points">
              <mxPoint x="1290" y="-1060" />
              <mxPoint x="1290" y="-1311" />
            </Array>
          </mxGeometry>
        </mxCell>
        <mxCell id="ISFkGGhXHdoQBhAszGyS-7" style="edgeStyle=orthogonalEdgeStyle;rounded=0;orthogonalLoop=1;jettySize=auto;html=1;" edge="1" parent="WIyWlLk6GJQsqaUBKTNV-1" source="tGhq1vd1xCX6ENyTumZ_-69" target="HjSV1TEzzstD-xtGG22P-9">
          <mxGeometry relative="1" as="geometry" />
        </mxCell>
        <mxCell id="ISFkGGhXHdoQBhAszGyS-8" style="edgeStyle=orthogonalEdgeStyle;rounded=0;orthogonalLoop=1;jettySize=auto;html=1;" edge="1" parent="WIyWlLk6GJQsqaUBKTNV-1" source="tGhq1vd1xCX6ENyTumZ_-68" target="zkfFHV4jXpPFQw0GAbJ--7">
          <mxGeometry relative="1" as="geometry" />
        </mxCell>
        <mxCell id="ISFkGGhXHdoQBhAszGyS-9" style="edgeStyle=orthogonalEdgeStyle;rounded=0;orthogonalLoop=1;jettySize=auto;html=1;entryX=0;entryY=0.5;entryDx=0;entryDy=0;" edge="1" parent="WIyWlLk6GJQsqaUBKTNV-1" source="tGhq1vd1xCX6ENyTumZ_-92" target="tGhq1vd1xCX6ENyTumZ_-65">
          <mxGeometry relative="1" as="geometry" />
        </mxCell>
        <mxCell id="ISFkGGhXHdoQBhAszGyS-11" style="edgeStyle=orthogonalEdgeStyle;rounded=0;orthogonalLoop=1;jettySize=auto;html=1;entryX=0;entryY=0.5;entryDx=0;entryDy=0;" edge="1" parent="WIyWlLk6GJQsqaUBKTNV-1" source="sHOM1PMXue6XPy4m4KVC-10" target="tGhq1vd1xCX6ENyTumZ_-151">
          <mxGeometry relative="1" as="geometry" />
        </mxCell>
        <mxCell id="ISFkGGhXHdoQBhAszGyS-14" style="edgeStyle=orthogonalEdgeStyle;rounded=0;orthogonalLoop=1;jettySize=auto;html=1;" edge="1" parent="WIyWlLk6GJQsqaUBKTNV-1" source="ISFkGGhXHdoQBhAszGyS-12" target="zkfFHV4jXpPFQw0GAbJ--6">
          <mxGeometry relative="1" as="geometry">
            <Array as="points">
              <mxPoint x="430" y="-1411" />
              <mxPoint x="430" y="-1340" />
              <mxPoint x="170" y="-1340" />
              <mxPoint x="170" y="-1200" />
            </Array>
          </mxGeometry>
        </mxCell>
      </root>
    </mxGraphModel>
  </diagram>
</mxfile>
